<?xml version="1.0" encoding="utf-8"?>
<!-- Generator: Adobe Illustrator 25.4.1, SVG Export Plug-In . SVG Version: 6.00 Build 0)  -->
<svg version="1.1" xmlns="http://www.w3.org/2000/svg" xmlns:xlink="http://www.w3.org/1999/xlink" x="0px" y="0px"
	 viewBox="0 0 128 128" style="enable-background:new 0 0 128 128;" xml:space="preserve">
<style type="text/css">
	.st0{fill:#FFFFFF;}
	.st1{fill:#D3EDE8;}
	.st2{fill:#F49600;}
	.st3{fill:#F6B445;}
	.st4{fill:#EDEDED;}
	.st5{opacity:9.505400e-02;fill:#020202;}
	.st6{fill:#F7F7F7;}
	.st7{fill:#B5BBC1;}
	.st8{fill:#FED049;}
	.st9{fill:#FDAD13;}
	.st10{fill:#DAEFEE;}
	.st11{fill:none;stroke:#0284C4;stroke-width:0.2927;stroke-miterlimit:10;}
	.st12{fill:none;stroke:#0284C4;stroke-width:0.2927;stroke-miterlimit:10;stroke-dasharray:2.321,2.321;}
	.st13{fill:#06637F;}
	.st14{fill:#0775A0;}
	.st15{fill:#0284C4;}
	.st16{fill:none;stroke:#0284C4;stroke-width:0.8781;stroke-linecap:round;stroke-miterlimit:10;}
	.st17{opacity:0.4972;fill:#FFFFFF;}
	
		.st18{opacity:0.3323;fill:none;stroke:#FDAD13;stroke-width:0.7789;stroke-linecap:round;stroke-linejoin:round;stroke-miterlimit:10;}
	.st19{fill:#CEEDED;}
	.st20{fill:none;stroke:#13D2C2;stroke-width:1.2894;stroke-linecap:round;stroke-miterlimit:10;}
	.st21{fill:none;stroke:#13D2C2;stroke-width:0.9785;stroke-linecap:round;stroke-miterlimit:10;}
	.st22{fill:none;stroke:#13D2C2;stroke-width:1.5579;stroke-linecap:round;stroke-miterlimit:10;}
	.st23{fill:#2B759E;}
	.st24{fill:#FCFDFD;}
	.st25{fill:#29749E;}
	.st26{fill:#2A749E;}
	.st27{fill:#EFEFEF;}
	.st28{fill:#FBFBFB;}
	.st29{fill:url(#SVGID_1_);}
	.st30{fill:url(#SVGID_00000168104002178070573530000012837701923799556765_);}
	.st31{fill:#C9D8D3;}
	.st32{opacity:0.26;}
	.st33{fill:#FED120;}
	.st34{fill:#D69625;}
	.st35{fill:#FED70A;}
	.st36{fill:#7E8CF6;}
	.st37{fill:#4F59C9;}
	.st38{fill:#FFFFFF;stroke:#FFFFFF;stroke-width:0.1889;stroke-miterlimit:10;}
	.st39{fill:#D3D388;}
	.st40{fill:#B3B54D;}
	.st41{fill:#A0D8F3;}
	.st42{fill:#4BA0B7;}
	.st43{fill:#EAD168;}
	.st44{fill:url(#SVGID_00000147189235353251380870000014472148271178182823_);}
	.st45{fill:#A6D6F7;}
	.st46{fill:#3597F9;}
	.st47{fill:#FFD2D2;}
	.st48{fill:#FF0000;}
	.st49{fill:#FFFFFF;stroke:#FFFFFF;stroke-width:0.1271;stroke-miterlimit:10;}
	.st50{fill:#FFEE98;}
	.st51{opacity:0.4;fill:#FED70A;}
	.st52{opacity:0.1487;fill:#020202;}
	.st53{fill:#192633;}
	.st54{fill:#314256;}
	.st55{fill:#F08F3C;}
	.st56{fill:#FDF1E6;}
	.st57{fill:#F3AC4A;}
	.st58{fill-rule:evenodd;clip-rule:evenodd;fill:#FFFFFF;}
	.st59{fill:#324D90;}
	.st60{fill:#F3F5FB;}
	.st61{fill:#152E60;}
	.st62{fill:#E3EAF4;}
	.st63{fill:#3663AD;}
	.st64{fill:#2D4A81;}
	.st65{fill:#CCCCCC;}
	.st66{fill:#F5A554;}
	.st67{fill:#E0883E;}
	.st68{fill:#1C2E41;}
	.st69{fill:#9ED3EF;}
	.st70{fill:#59BEE9;}
	.st71{fill:#C1E0F2;}
	.st72{fill:#FBCB87;}
	.st73{fill:#FF6E61;}
	.st74{fill:#FCBA33;}
	.st75{fill:#FAFEFF;}
	.st76{fill:#50BDE7;}
	.st77{fill:#AFB6BC;}
	.st78{fill:#FEFEFE;}
	.st79{fill:#EBEEF0;}
	.st80{fill:#4CAE50;}
	.st81{fill:#388D3C;}
	.st82{fill:#FEC007;}
	.st83{fill:#FFFFFB;}
	.st84{fill:#CB4B4C;}
	.st85{fill:#D8D6C9;}
	.st86{fill:#E8E8DF;}
	.st87{fill:#E8E6DD;}
	.st88{fill:#E8E5DC;}
	.st89{fill:#F19B1F;}
	.st90{fill:#FFFFFF;stroke:#FFFFFF;stroke-width:0.118;stroke-miterlimit:10;}
	.st91{fill:#F2BE3B;}
	.st92{fill:#161616;}
	.st93{fill:#FFFFFF;stroke:#FFFFFF;stroke-width:0.1329;stroke-miterlimit:10;}
	.st94{fill:#303030;}
	.st95{fill:#FFFFFF;stroke:#FFFFFF;stroke-width:0.2042;stroke-miterlimit:10;}
	.st96{fill:#CCD2F5;}
	.st97{fill:#C7E9F9;}
	.st98{fill:#F9AF9A;}
	.st99{opacity:0.34;fill:#F9AF9A;}
	.st100{fill:#327FFF;}
	.st101{fill:#0A5487;}
	.st102{opacity:0.2;fill:#0A5487;}
	.st103{opacity:0.15;fill:#0A5487;}
	.st104{opacity:0.1;fill:#0A5487;}
	.st105{fill:#BD8B26;}
	.st106{opacity:0.28;fill:#FED70A;}
	.st107{fill:#052A44;}
	.st108{fill:#1F756C;}
	.st109{fill:#299C90;}
	.st110{opacity:0.15;fill:#299C90;}
	.st111{opacity:0.42;fill:#299C90;}
	.st112{fill:#063956;}
	.st113{opacity:0.8;fill:#CCCBCA;}
	.st114{fill:#00325B;}
	.st115{fill:#5592AA;}
	.st116{opacity:0.26;clip-path:url(#SVGID_00000048489537813814940550000015210193883442495415_);}
	.st117{fill:#DCF3FF;}
	.st118{clip-path:url(#SVGID_00000074441864406943124760000006166335733411741092_);}
	.st119{fill:#FFFFFF;stroke:#FFFFFF;stroke-width:0.1052;stroke-miterlimit:10;}
	.st120{opacity:0.26;clip-path:url(#SVGID_00000163066871859971168930000003991018549521523091_);}
	.st121{fill:#FFFFFF;stroke:#FFFFFF;stroke-width:0.1048;stroke-miterlimit:10;}
	.st122{fill:#FFFFFF;stroke:#FFFFFF;stroke-width:0.1514;stroke-miterlimit:10;}
</style>
<g id="BACKGROUND">
</g>
<g id="OBJECT">
</g>
<g id="DESIGNED_BY_FREEPIK">
	<g>
		<g>
			<polygon class="st0" points="20.5,42.1 20.5,87.8 105.7,87.8 105.7,42.2 			"/>
			<g>
				<g>
					<path class="st47" d="M111.5,33.7c-1.8-0.5-3.5-0.9-5.3-1.4c-1.2-0.3-2.4-0.7-3.6-1c-1.1-0.3-2.1-1.6-1.8-2.9
						c0.1-0.4,0.2-0.8,0.3-1.2c0.8-2.9,1.6-5.8,2.3-8.6c0.3,0.3,0.5,0.7,0.7,1.1c1.1,2.1,2.3,4.3,3.4,6.4c1.3,2.4,2.5,4.8,3.8,7.1
						C111.4,33.4,111.5,33.6,111.5,33.7z"/>
					<path class="st48" d="M111.5,33.7c-0.2-0.2-0.5-0.2-0.7-0.3c-2.7-0.7-5.5-1.5-8.2-2.2c-1.1-0.3-1.8-1.4-1.7-2.5
						c0-0.4,0.1-0.8,0.2-1.1c0.7-2.7,1.5-5.5,2.2-8.2c0.1-0.2,0.2-0.5,0.1-0.7c-0.1,0-0.2-0.1-0.3-0.1c-5-1.4-10-2.7-15-4.1
						c-2.3-0.6-4.3,0.6-5,2.9c-2.7,10.1-5.5,20.2-8.2,30.3c-0.6,2.3,0.5,4.4,2.9,5c7.6,2.1,15.2,4.1,22.8,6.2c2.3,0.6,4.3-0.6,5-2.9
						c2-7.2,3.9-14.5,5.9-21.7C111.5,34,111.6,33.9,111.5,33.7z"/>
				</g>
				<g>
					<path class="st93" d="M101,48.6c0,0.1-0.1,0.1-0.1,0.2c-0.3,0.3-0.6,0.4-1,0.3c-0.3-0.1-0.6-0.2-0.9-0.3
						c-5.1-1.4-10.2-2.8-15.3-4.1c-0.1,0-0.3-0.1-0.4-0.1c-0.3-0.2-0.5-0.6-0.5-1c0-0.1,0-0.1,0-0.2c1-3.8,2.1-7.6,3.1-11.4
						c0.1-0.5,0.5-0.8,0.9-0.8c0.1,0,0.3,0,0.4,0.1c5.4,1.5,10.8,2.9,16.2,4.4c0.5,0.1,0.8,0.5,0.8,1
						C103.2,40.6,102.1,44.6,101,48.6z M101.8,42.9C101.8,42.9,101.9,42.9,101.8,42.9c0.1-0.1,0.1-0.1,0.1-0.2c0.5-2,1.1-4,1.6-6
						c0.1-0.3,0-0.5-0.3-0.5c-5.4-1.5-10.8-2.9-16.2-4.4c-0.3-0.1-0.5,0-0.5,0.3c-0.6,2.2-1.2,4.4-1.8,6.6c0,0,0,0.1,0,0.2
						c0.1,0,0.1-0.1,0.2-0.1c0.9-0.5,1.8-1,2.7-1.6c0.6-0.3,1.1-0.2,1.5,0.4c0.7,1.2,1.4,2.4,2,3.5c0,0.1,0.1,0.1,0.1,0.2
						c0.1,0,0.1-0.1,0.2-0.1c2.1-1.2,4.1-2.4,6.2-3.6c0.1-0.1,0.2-0.1,0.4-0.2c0.4-0.1,0.8,0.1,1.1,0.5c0.9,1.5,1.8,3.1,2.7,4.7
						C101.8,42.8,101.8,42.9,101.8,42.9z M86.5,44.7C86.6,44.7,86.6,44.8,86.5,44.7c0.1,0.1,0.1,0.1,0.2,0.1
						c4.4,1.2,8.8,2.4,13.2,3.6c0.3,0.1,0.5,0,0.5-0.3c0.4-1.4,0.7-2.7,1.1-4.1c0-0.1,0-0.2,0-0.3c-1-1.7-2-3.5-3-5.2
						c-0.2-0.3-0.3-0.4-0.6-0.2c-3.7,2.1-7.4,4.3-11.1,6.4C86.7,44.7,86.6,44.7,86.5,44.7z M90.6,41.7c0,0,0-0.1,0-0.1
						c-0.7-1.2-1.4-2.4-2.1-3.7c-0.1-0.2-0.3-0.3-0.6-0.1c-1.1,0.6-2.3,1.3-3.4,1.9c-0.1,0-0.1,0.1-0.2,0.2c-0.3,1.2-0.6,2.3-1,3.5
						c-0.1,0.3,0,0.5,0.3,0.6c0.6,0.2,1.2,0.3,1.7,0.5c0.1,0,0.2,0,0.3,0c1.5-0.9,3.1-1.8,4.6-2.7C90.5,41.8,90.6,41.7,90.6,41.7z"
						/>
					<path class="st93" d="M92.2,38.8c-1-0.3-1.6-1.3-1.3-2.3c0.3-1,1.3-1.6,2.3-1.3c1,0.3,1.6,1.3,1.4,2.3
						C94.3,38.5,93.2,39.1,92.2,38.8z M92.4,38.2c0.7,0.2,1.4-0.2,1.5-0.9c0.2-0.7-0.2-1.4-0.9-1.5c-0.7-0.2-1.4,0.2-1.6,0.9
						C91.3,37.3,91.7,38,92.4,38.2z"/>
				</g>
			</g>
			<g>
				<g>
					<g>
						<path class="st39" d="M44.6,21.6c-1.7,0.6-3.5,1.1-5.2,1.7c-1.2,0.4-2.4,0.7-3.6,1.2c-1.1,0.4-2.6-0.2-3.1-1.4
							c-0.2-0.4-0.3-0.8-0.4-1.2c-0.9-2.8-1.9-5.7-2.8-8.5c0.4,0.1,0.8,0.4,1.2,0.6c2.1,1.2,4.3,2.3,6.4,3.5
							c2.4,1.3,4.7,2.6,7.1,3.9C44.3,21.5,44.4,21.6,44.6,21.6z"/>
						<path class="st40" d="M44.6,21.6c-0.3-0.1-0.5,0-0.8,0.1c-2.7,0.9-5.4,1.8-8.1,2.6c-1.1,0.4-2.3-0.1-2.8-1.2
							c-0.2-0.3-0.3-0.7-0.4-1.1c-0.9-2.7-1.8-5.4-2.6-8.1c-0.1-0.2-0.1-0.5-0.3-0.6c-0.1,0-0.2,0.1-0.3,0.1
							c-4.9,1.6-9.9,3.2-14.8,4.8c-2.2,0.7-3.3,2.8-2.6,5.1c3.2,9.9,6.5,19.9,9.7,29.8c0.7,2.3,2.8,3.3,5.1,2.6
							c7.5-2.4,15-4.9,22.5-7.3c2.3-0.7,3.3-2.8,2.6-5.1c-2.3-7.1-4.7-14.3-7-21.4C44.7,21.9,44.7,21.7,44.6,21.6z"/>
					</g>
				</g>
				<g>
					<path class="st0" d="M35.4,44.4c-2.5,0.8-5,1.6-7.5,2.5c-0.7,0.2-1.2,0-1.5-0.7c-1.3-3.9-2.5-7.8-3.8-11.7
						c-0.2-0.7,0-1.2,0.7-1.5c5-1.6,10-3.3,15-4.9c0.7-0.2,1.2,0,1.5,0.7c1.3,3.9,2.5,7.8,3.8,11.7c0.2,0.7,0,1.2-0.7,1.5
						C40.4,42.8,37.9,43.6,35.4,44.4z M39.6,30.1c-5.4,1.8-10.7,3.5-16.1,5.3c1,3,1.9,5.9,2.9,8.9c5.4-1.8,10.7-3.5,16.1-5.3
						C41.5,36,40.6,33.1,39.6,30.1z M26.6,44.8c0.1,0.4,0.2,0.7,0.4,1.1c0.1,0.4,0.3,0.5,0.7,0.4c4-1.3,8.1-2.6,12.1-4
						c1-0.3,2-0.6,3-1c0.3-0.1,0.4-0.3,0.3-0.6c-0.1-0.3-0.2-0.5-0.3-0.8c0-0.1-0.1-0.3-0.1-0.4C37.3,41.3,31.9,43,26.6,44.8z
						 M23.3,34.8c5.4-1.8,10.7-3.5,16.1-5.3c-0.1-0.2-0.1-0.4-0.2-0.5c-0.1-0.4-0.3-0.5-0.8-0.4c-5,1.6-10,3.3-15,4.9
						c-0.1,0-0.1,0-0.2,0.1c-0.2,0.1-0.3,0.3-0.3,0.5C23.1,34.3,23.2,34.5,23.3,34.8z"/>
					<path class="st0" d="M34.1,40.5c-1.7,0.6-3.5-0.4-4.1-2.1c-0.5-1.7,0.4-3.5,2.1-4c1.7-0.5,3.5,0.4,4,2.1
						C36.7,38.1,35.8,39.9,34.1,40.5z M30.6,38.3c0.4,1.4,1.9,2.1,3.3,1.7c1.4-0.4,2.1-1.9,1.7-3.3c-0.4-1.4-1.9-2.2-3.3-1.7
						C30.9,35.4,30.1,36.9,30.6,38.3z"/>
					<path class="st0" d="M30.3,44.8c0,0.2,0,0.3-0.2,0.4c-0.2,0.1-0.3,0-0.4-0.2c-0.3,0.1-0.7,0.2-1,0.3c-0.2,0.1-0.4,0-0.4-0.2
						c-0.1-0.2,0-0.3,0.3-0.4c0.3-0.1,0.7-0.2,1-0.3c0-0.2,0-0.3,0.2-0.4c0.2-0.1,0.3,0,0.4,0.2c0.1,0,0.1,0,0.2-0.1
						c3.5-1.2,7.1-2.3,10.6-3.5c0,0,0.1,0,0.1,0c0.3-0.1,0.4,0,0.5,0.1c0.1,0.2,0,0.3-0.3,0.4c-3.6,1.2-7.2,2.3-10.8,3.5
						C30.4,44.8,30.4,44.8,30.3,44.8z"/>
					<path class="st0" d="M32.3,37.7c-0.1-0.3-0.2-0.7-0.3-1c0-0.1-0.1-0.2,0-0.4c0.1-0.1,0.2-0.1,0.4-0.1c0.6,0.2,1.3,0.3,1.9,0.5
						c0.3,0.1,0.4,0.3,0.2,0.6c-0.4,0.5-0.8,1-1.2,1.5C33.1,39,33,39.1,32.8,39c-0.1,0-0.2-0.2-0.2-0.3
						C32.5,38.4,32.4,38.1,32.3,37.7z M33.7,37.2c-0.4-0.1-0.7-0.2-1.1-0.3c0.1,0.4,0.3,0.8,0.4,1.2C33.2,37.8,33.5,37.5,33.7,37.2z
						"/>
				</g>
			</g>
			<g>
				<g>
					<g>
						<path class="st41" d="M81.1,32c-1.8-0.3-3.6-0.6-5.4-0.9c-1.2-0.2-2.5-0.4-3.7-0.6c-1.1-0.1-2.2-1.4-2.1-2.7
							c0-0.4,0.1-0.8,0.1-1.3c0.5-2.9,0.9-5.9,1.4-8.8c0.3,0.3,0.5,0.7,0.8,1c1.4,2,2.7,4,4.1,6c1.5,2.2,3,4.5,4.5,6.7
							C80.9,31.7,81,31.8,81.1,32z"/>
						<path class="st42" d="M81.1,32c-0.2-0.2-0.5-0.2-0.7-0.2c-2.8-0.5-5.6-0.9-8.4-1.4c-1.1-0.2-2-1.2-2-2.3c0-0.4,0-0.8,0.1-1.1
							c0.5-2.8,0.9-5.6,1.4-8.4c0-0.2,0.1-0.5,0-0.7c-0.1,0-0.2,0-0.3-0.1C66,16.9,60.9,16,55.8,15.2c-2.3-0.4-4.2,1-4.6,3.4
							c-1.7,10.3-3.3,20.7-5,31c-0.4,2.4,1,4.3,3.4,4.7c7.8,1.3,15.6,2.5,23.4,3.8c2.4,0.4,4.3-1,4.7-3.4c1.2-7.4,2.4-14.8,3.6-22.2
							C81.1,32.3,81.2,32.1,81.1,32z"/>
					</g>
				</g>
				<g>
					<path class="st0" d="M70.9,45.4c-0.1,0.3-0.3,0.6-0.5,0.8c-0.6,0.6-1.5,0.7-2.2,0.2c-0.7-0.4-1.1-1.3-0.8-2.1
						c0.2-0.8,1-1.4,1.8-1.4c0.4,0,0.7,0.1,1,0.3c0,0,0.1,0.1,0.1,0.1c0.2-1.3,0.4-2.5,0.6-3.8c-1.9,0.2-3.9,0.4-5.8,0.7
						c0,0.1,0,0.1,0,0.2c-0.3,1.8-0.6,3.6-0.9,5.4C64,47,63,47.7,62,47.5c-0.9-0.2-1.6-1.1-1.5-2c0.1-0.9,0.9-1.7,1.8-1.7
						c0.4,0,0.8,0.1,1.2,0.4c0-0.1,0-0.1,0-0.2c0.3-2,0.6-3.9,1-5.9c0.1-0.4,0.2-0.5,0.5-0.5c2.2-0.3,4.4-0.5,6.5-0.8
						c0.4,0,0.5,0,0.7,0.4C71.8,40,71.3,42.7,70.9,45.4z"/>
					<path class="st0" d="M60.6,31.2c0.1,0.1,0.2,0.3,0.3,0.4c0.4,0.8,0.8,1.7,1.4,2.4c0.3,0.3,0.6,0.6,0.9,1
						c0.7,0.7,0.9,1.6,0.5,2.5c-0.4,0.9-1.1,1.4-2.1,1.4c-0.1,0-0.3,0-0.4,0c-0.3,0-0.5-0.3-0.4-0.5c0-0.3,0.3-0.4,0.5-0.4
						c0.7,0.1,1.3-0.3,1.5-1c0.2-0.5,0-1-0.3-1.4c-0.6-0.6-1.2-1.3-1.6-2c-0.1-0.1-0.1-0.2-0.2-0.4c0,0.1,0,0.1,0,0.2
						c-0.4,2.3-0.8,4.7-1.1,7c-0.2,1.1-1.2,1.7-2.2,1.5c-0.9-0.2-1.6-1.1-1.5-2c0.1-0.9,0.9-1.7,1.8-1.7c0.4,0,0.8,0.1,1.1,0.3
						c0,0,0.1,0.1,0.1,0.1c0-0.1,0-0.1,0-0.2c0.4-2.3,0.7-4.6,1.1-6.8c0-0.3,0.2-0.5,0.4-0.5C60.4,31.2,60.5,31.2,60.6,31.2z"/>
				</g>
			</g>
			<g>
				<path class="st50" d="M10.7,55.8l6.9,53c0.3,2.4,2.5,4.3,5,4.3h82.7c2.5,0,4.7-1.8,5-4.2l7.3-53c0.4-2.9-1.9-5.5-5-5.5H15.7
					C12.7,50.3,10.3,52.9,10.7,55.8z"/>
				<path class="st91" d="M10.5,57.3l6.9,53c0.3,2.4,2.5,4.3,5,4.3h82.7c2.5,0,4.7-1.8,5-4.2l7.3-53c0.4-2.9-1.9-5.5-5-5.5H15.5
					C12.5,51.8,10.1,54.4,10.5,57.3z"/>
			</g>
			<path class="st51" d="M112.1,95.1l5.2-37.7c0.4-2.9-1.9-5.5-5-5.5H41.2L112.1,95.1z"/>
			<polygon class="st51" points="31,51.8 111.2,102 110.7,105.4 27.5,51.8 			"/>
			<g>
				
					<ellipse transform="matrix(0.7071 -0.7071 0.7071 0.7071 -40.1009 69.5602)" class="st0" cx="63.9" cy="83.2" rx="18.5" ry="18.5"/>
				<g>
					<path class="st94" d="M46.8,84.1c0-0.6,0-1.3,0-1.9c0,0,0-0.1,0-0.1c0-0.8,0.1-1.6,0.3-2.4c0.7-3.3,2.2-6.2,4.6-8.6
						c3-3,6.6-4.7,10.8-5.1c0.2,0,0.4,0,0.5-0.1c0.6,0,1.2,0,1.8,0c0,0,0.1,0,0.1,0c0.6,0,1.3,0.1,1.9,0.2c3.1,0.5,5.8,1.8,8.2,3.8
						c3.6,3.1,5.6,7,6,11.6c0,0.2,0,0.4,0.1,0.5c0,0.6,0,1.2,0,1.8c0,0,0,0.1,0,0.1c0,0.8-0.2,1.6-0.3,2.4c-0.5,2.6-1.6,5-3.3,7.1
						c-3.1,3.9-7.1,6.1-12.1,6.6c-0.2,0-0.4,0-0.6,0.1c-0.6,0-1.2,0-1.8,0c0,0-0.1,0-0.1,0c-0.8,0-1.6-0.1-2.4-0.3
						c-2.6-0.5-4.9-1.6-6.9-3.2c-4-3.1-6.2-7.2-6.7-12.2C46.8,84.4,46.8,84.3,46.8,84.1z M63.9,99.5c9,0,16.3-7.3,16.4-16.4
						c0-9-7.3-16.4-16.3-16.4c-9,0-16.4,7.3-16.4,16.3C47.5,92.2,54.9,99.5,63.9,99.5z"/>
					<path class="st24" d="M63.9,99.5c-9,0-16.4-7.4-16.4-16.4c0-9,7.4-16.3,16.4-16.3c9.1,0,16.4,7.4,16.3,16.4
						C80.3,92.2,72.9,99.6,63.9,99.5z M71.4,95.9C71.4,95.8,71.4,95.8,71.4,95.9c4.3-2.7,6.7-6.5,7.2-11.5c0.2-2.4-0.2-4.7-1.1-6.9
						c-0.2-0.4-0.4-0.8-0.6-1.2c0,0.1,0,0.1,0,0.2c0.1,1.3,0.1,2.7-0.2,4c-0.2,0.9-0.5,1.8-0.8,2.7c-1.3,3.8-2.6,7.5-3.9,11.3
						C71.7,94.8,71.5,95.3,71.4,95.9C71.3,95.8,71.3,95.9,71.4,95.9C71.3,95.9,71.4,95.9,71.4,95.9z M57.4,96.4
						C57.5,96.4,57.5,96.4,57.4,96.4C57.5,96.4,57.5,96.4,57.4,96.4c0-0.1,0-0.1,0-0.2c-2.3-6.3-4.6-12.6-6.9-18.8
						c0,0,0-0.1-0.1-0.1c-0.7,1.5-1.1,3.1-1.2,4.8c-0.1,1.8,0,3.6,0.6,5.3c1.1,3.6,3.2,6.4,6.4,8.3C56.6,96,57,96.2,57.4,96.4z
						 M71.3,92.1c0-0.1,0-0.1,0-0.1c0.7-2.3,1.4-4.6,2.1-6.9c0.2-0.7,0.4-1.4,0.4-2.2c0.1-1.4-0.2-2.6-0.8-3.8
						c-0.3-0.6-0.7-1.2-1.1-1.9c-0.3-0.6-0.6-1.3-0.7-2c-0.1-1.1,0.5-2.3,1.5-2.7c0.3-0.1,0.7-0.2,1.1-0.2c0-0.1-0.1-0.1-0.1-0.2
						c-2.2-2-4.8-3.2-7.8-3.6c-1.6-0.2-3.2-0.2-4.7,0.1c-2.3,0.4-4.3,1.3-6.1,2.7c-1.3,1-2.4,2.2-3.3,3.5c0,0-0.1,0.1,0,0.1
						c0,0,0.1,0,0.1,0c0.9,0,1.8,0,2.8-0.1c0.7,0,1.3-0.1,2-0.1c0.3,0,0.6,0.2,0.6,0.5c0,0.3-0.1,0.6-0.5,0.7c-0.1,0-0.3,0-0.4,0
						c-0.4,0-0.9,0.1-1.3,0.1c1.8,5.3,3.6,10.6,5.3,15.9c0.1,0,0.1-0.1,0.1-0.1c1-3.1,2.1-6.3,3.1-9.4c0-0.1,0-0.1,0-0.2
						c-0.7-2-1.5-4-2.2-6.1c0-0.1-0.1-0.1-0.2-0.1c-0.5,0-0.9-0.1-1.4-0.1c-0.2,0-0.4-0.1-0.5-0.3c-0.2-0.4,0.1-0.9,0.6-0.9
						c0.5,0,0.9,0.1,1.4,0.1c1.2,0.1,2.4,0.1,3.6,0.1c0.9,0,1.8-0.1,2.7-0.2c0.3,0,0.5,0.1,0.6,0.4c0.2,0.4-0.1,0.8-0.5,0.8
						c-0.5,0-1,0.1-1.5,0.1c-0.2,0-0.2,0-0.1,0.2c1.6,4.7,3.2,9.4,4.7,14.1C70.9,91.1,71.1,91.6,71.3,92.1z M64.2,84.5
						c0,0.1,0,0.1-0.1,0.1c-1.4,4.2-2.9,8.4-4.3,12.5c0,0.1,0,0.2,0.1,0.2c0.9,0.3,1.9,0.4,2.8,0.5c2,0.2,3.9-0.1,5.7-0.7
						c0.3-0.1,0.3-0.1,0.2-0.4c-1.4-3.7-2.7-7.5-4.1-11.2C64.4,85.2,64.3,84.8,64.2,84.5z"/>
					<path class="st94" d="M71.3,92.1c-0.2-0.5-0.3-1-0.5-1.5c-1.6-4.7-3.2-9.4-4.7-14.1c-0.1-0.2-0.1-0.2,0.1-0.2
						c0.5,0,1-0.1,1.5-0.1c0.4,0,0.7-0.4,0.5-0.8c-0.1-0.3-0.3-0.4-0.6-0.4c-0.9,0.1-1.8,0.1-2.7,0.2c-1.2,0.1-2.4,0-3.6-0.1
						c-0.5,0-0.9-0.1-1.4-0.1c-0.5,0-0.8,0.5-0.6,0.9c0.1,0.2,0.3,0.3,0.5,0.3c0.5,0,0.9,0.1,1.4,0.1c0.1,0,0.1,0,0.2,0.1
						c0.7,2,1.5,4,2.2,6.1c0,0.1,0,0.1,0,0.2c-1,3.1-2.1,6.3-3.1,9.4c0,0,0,0.1-0.1,0.1c-1.8-5.3-3.6-10.6-5.3-15.9
						c0.4,0,0.9-0.1,1.3-0.1c0.1,0,0.3,0,0.4,0c0.3-0.1,0.5-0.3,0.5-0.7c0-0.3-0.3-0.5-0.6-0.5c-0.7,0-1.3,0.1-2,0.1
						c-0.9,0.1-1.8,0.1-2.8,0.1c0,0-0.1,0-0.1,0c0,0,0-0.1,0-0.1c0.9-1.4,2-2.5,3.3-3.5c1.8-1.4,3.9-2.3,6.1-2.7
						c1.6-0.3,3.1-0.3,4.7-0.1c3,0.4,5.5,1.6,7.8,3.6c0,0,0.1,0.1,0.1,0.2c-0.4,0-0.7,0-1.1,0.2c-1,0.4-1.7,1.6-1.5,2.7
						c0.1,0.7,0.4,1.4,0.7,2c0.4,0.6,0.8,1.2,1.1,1.9c0.6,1.2,0.9,2.5,0.8,3.8c-0.1,0.7-0.2,1.5-0.4,2.2c-0.7,2.3-1.4,4.6-2.1,6.9
						C71.3,92,71.3,92,71.3,92.1z"/>
					<path class="st94" d="M64.2,84.5c0.1,0.4,0.3,0.7,0.4,1c1.4,3.7,2.7,7.5,4.1,11.2c0.1,0.3,0.1,0.3-0.2,0.4
						c-1.9,0.6-3.8,0.8-5.7,0.7c-1-0.1-1.9-0.3-2.8-0.5c-0.1,0-0.2-0.1-0.1-0.2c1.4-4.2,2.9-8.4,4.3-12.5
						C64.1,84.6,64.1,84.6,64.2,84.5z"/>
					<path class="st94" d="M57.4,96.4c-0.4-0.2-0.9-0.4-1.3-0.7c-3.1-2-5.3-4.8-6.4-8.3c-0.5-1.7-0.7-3.5-0.6-5.3
						c0.1-1.7,0.5-3.2,1.2-4.8c0.1,0,0.1,0.1,0.1,0.1c2.3,6.3,4.6,12.6,6.9,18.8C57.4,96.3,57.5,96.3,57.4,96.4
						C57.5,96.4,57.5,96.4,57.4,96.4z"/>
					<path class="st94" d="M71.3,95.8c0.2-0.5,0.3-1,0.5-1.5c1.3-3.8,2.6-7.5,3.9-11.3c0.3-0.9,0.6-1.8,0.8-2.7
						c0.3-1.3,0.4-2.6,0.2-4c0,0,0-0.1,0-0.2c0.2,0.4,0.4,0.8,0.6,1.2c0.9,2.2,1.4,4.5,1.1,6.9C78.1,89.3,75.7,93.2,71.3,95.8
						C71.4,95.8,71.4,95.8,71.3,95.8C71.4,95.9,71.4,95.8,71.3,95.8z"/>
					<path class="st26" d="M71.4,95.9C71.4,95.9,71.3,95.9,71.4,95.9C71.3,95.9,71.3,95.8,71.4,95.9C71.4,95.8,71.4,95.9,71.4,95.9z
						"/>
					<path class="st26" d="M57.5,96.4C57.5,96.4,57.5,96.4,57.5,96.4C57.5,96.4,57.5,96.4,57.5,96.4C57.5,96.4,57.5,96.4,57.5,96.4z
						"/>
				</g>
			</g>
		</g>
	</g>
	<g>
		<g>
			<defs>
				<rect id="SVGID_00000066490287940331128050000017543974728949595040_" x="-1014.9" y="-581.7" width="1558.1" height="508.5"/>
			</defs>
			<clipPath id="SVGID_00000014635268831371170880000003978242034119714232_">
				<use xlink:href="#SVGID_00000066490287940331128050000017543974728949595040_"  style="overflow:visible;"/>
			</clipPath>
		</g>
	</g>
</g>
</svg>
